<?xml version="1.0" standalone="no"?>
<!DOCTYPE svg PUBLIC "-//W3C//DTD SVG 20010904//EN"
 "http://www.w3.org/TR/2001/REC-SVG-20010904/DTD/svg10.dtd">
<svg version="1.0" xmlns="http://www.w3.org/2000/svg"
 width="849.000000pt" height="849.000000pt" viewBox="0 0 849.000000 849.000000"
 preserveAspectRatio="xMidYMid meet">
<metadata>
Created by potrace 1.11, written by Peter Selinger 2001-2013
</metadata>
<g transform="translate(0.000000,849.000000) scale(0.100000,-0.100000)"
fill="#000000" stroke="none">
<path d="M0 4245 l0 -4245 4245 0 4245 0 0 4245 0 4245 -4245 0 -4245 0 0
-4245z m4120 2070 c12 -1045 21 -1917 19 -1938 -4 -34 -23 5 -166 340 -90 208
-170 398 -178 422 -13 38 -15 216 -15 1416 l0 1372 60 59 c33 32 75 74 93 93
95 102 150 152 157 145 4 -5 17 -864 30 -1909z m-2232 335 l180 -405 6 -215
c3 -118 8 -487 11 -820 3 -333 7 -636 10 -675 2 -38 7 -401 11 -805 4 -404 8
-753 9 -775 2 -22 4 -214 5 -426 l2 -385 -91 -231 c-50 -127 -91 -234 -91
-237 0 -4 -9 -25 -19 -49 -11 -23 -34 -80 -52 -126 -17 -45 -37 -95 -45 -110
-13 -25 -14 -23 -14 34 0 33 -25 1282 -55 2775 -56 2774 -58 2866 -51 2859 2
-2 85 -186 184 -409z m5032 128 l0 -232 -153 -155 c-84 -86 -407 -417 -717
-736 -310 -319 -652 -670 -759 -780 -108 -110 -290 -296 -404 -412 l-208 -213
-231 0 c-132 0 -228 4 -226 9 2 5 250 263 553 573 302 309 722 741 934 958
363 372 517 530 977 998 104 106 192 200 197 208 4 8 15 14 22 14 13 0 15 -36
15 -232z m-3690 -1659 c487 -469 887 -857 888 -861 2 -4 -105 -8 -238 -8
l-243 0 -131 128 c-126 122 -245 237 -555 537 -80 77 -217 210 -304 295 -87
85 -162 157 -168 158 -5 2 -16 17 -25 34 -15 28 -320 746 -332 778 -2 8 47
-35 109 -96 63 -61 512 -495 999 -965z m1041 -976 c9 -10 164 -162 345 -338
440 -428 1244 -1219 1979 -1947 182 -179 345 -338 363 -353 17 -15 32 -31 32
-36 0 -5 -99 -9 -231 -9 l-231 0 -356 348 c-692 675 -1519 1477 -1563 1517
-41 38 -57 70 -212 430 -92 215 -167 393 -167 398 0 13 25 7 41 -10z m-191
-110 c-21 -54 -82 -204 -135 -333 -53 -129 -108 -264 -122 -300 -22 -55 -45
-84 -147 -190 -67 -69 -247 -255 -401 -415 -559 -578 -883 -912 -1030 -1061
-82 -84 -199 -202 -258 -263 -59 -61 -112 -111 -117 -111 -6 0 -2 19 7 43 10
23 76 193 148 378 l130 336 975 1006 c536 553 978 1006 982 1006 3 1 -11 -43
-32 -96z m110 -1813 c11 -883 20 -1695 20 -1805 l0 -200 -164 165 -163 165
-17 1335 c-9 734 -19 1362 -21 1396 -5 59 -3 66 151 440 86 208 159 386 163
394 7 18 6 99 31 -1890z"/>
</g>
</svg>
